<?xml version="1.0" standalone="no"?>
<!DOCTYPE svg PUBLIC "-//W3C//DTD SVG 20010904//EN"
 "http://www.w3.org/TR/2001/REC-SVG-20010904/DTD/svg10.dtd">
<svg version="1.0" xmlns="http://www.w3.org/2000/svg"
 width="512.000000pt" height="512.000000pt" viewBox="0 0 512.000000 512.000000"
 preserveAspectRatio="xMidYMid meet">
<metadata>
Created by potrace 1.11, written by Peter Selinger 2001-2013
</metadata>
<g transform="translate(0.000000,512.000000) scale(0.100000,-0.100000)"
fill="#000000" stroke="none">
<path d="M2378 5115 c-2 -1 -39 -5 -82 -9 -44 -4 -82 -9 -85 -11 -4 -2 -34 -7
-66 -10 -117 -14 -472 -111 -499 -136 -6 -5 -16 -9 -23 -9 -8 0 -49 -16 -91
-35 -352 -161 -618 -354 -877 -637 -33 -36 -71 -80 -85 -98 -14 -18 -29 -38
-35 -44 -5 -7 -21 -27 -35 -46 -265 -372 -409 -721 -476 -1160 -20 -124 -26
-501 -11 -635 99 -902 670 -1689 1494 -2060 216 -97 427 -160 680 -201 138
-22 543 -27 683 -8 583 79 1086 323 1482 717 432 430 676 927 752 1534 13 101
15 517 3 568 -3 11 -8 45 -11 75 -18 140 -66 341 -118 490 -201 572 -589 1048
-1113 1362 -66 39 -298 158 -310 158 -4 0 -21 6 -38 14 -137 62 -421 138 -607
162 -25 3 -56 8 -70 10 -27 6 -456 14 -462 9z"/>
</g>
</svg>
